<mxfile host="app.diagrams.net" modified="2021-06-12T13:43:12.802Z" agent="5.0 (Macintosh; Intel Mac OS X 10_15_7) AppleWebKit/537.36 (KHTML, like Gecko) Chrome/91.0.4472.77 Safari/537.36" etag="xBL5Acm-L7QpP80vvTEP" version="14.7.6" type="github">
  <diagram id="tbOJD9p2VRPzn0_YPtc9" name="Page-1">
    <mxGraphModel dx="1940" dy="1929" grid="1" gridSize="10" guides="1" tooltips="1" connect="1" arrows="1" fold="1" page="1" pageScale="1" pageWidth="827" pageHeight="1169" math="0" shadow="0">
      <root>
        <mxCell id="0" />
        <mxCell id="1" parent="0" />
        <mxCell id="ixZ_gmdfhWqnxYuAUtQI-32" style="edgeStyle=none;rounded=0;orthogonalLoop=1;jettySize=auto;html=1;" edge="1" parent="1" source="ixZ_gmdfhWqnxYuAUtQI-1">
          <mxGeometry relative="1" as="geometry">
            <mxPoint x="-140" y="160" as="targetPoint" />
          </mxGeometry>
        </mxCell>
        <mxCell id="ixZ_gmdfhWqnxYuAUtQI-77" style="edgeStyle=none;rounded=0;orthogonalLoop=1;jettySize=auto;html=1;entryX=0;entryY=0.5;entryDx=0;entryDy=0;" edge="1" parent="1" source="ixZ_gmdfhWqnxYuAUtQI-1" target="ixZ_gmdfhWqnxYuAUtQI-53">
          <mxGeometry relative="1" as="geometry" />
        </mxCell>
        <mxCell id="ixZ_gmdfhWqnxYuAUtQI-1" value="Facturación" style="ellipse;whiteSpace=wrap;html=1;aspect=fixed;fillColor=#d5e8d4;strokeColor=#82b366;" vertex="1" parent="1">
          <mxGeometry x="40" y="350" width="110" height="110" as="geometry" />
        </mxCell>
        <mxCell id="ixZ_gmdfhWqnxYuAUtQI-19" style="edgeStyle=none;rounded=0;orthogonalLoop=1;jettySize=auto;html=1;entryX=1;entryY=0.5;entryDx=0;entryDy=0;" edge="1" parent="1" source="ixZ_gmdfhWqnxYuAUtQI-6" target="ixZ_gmdfhWqnxYuAUtQI-1">
          <mxGeometry relative="1" as="geometry" />
        </mxCell>
        <mxCell id="ixZ_gmdfhWqnxYuAUtQI-40" style="edgeStyle=none;rounded=0;orthogonalLoop=1;jettySize=auto;html=1;" edge="1" parent="1" source="ixZ_gmdfhWqnxYuAUtQI-6">
          <mxGeometry relative="1" as="geometry">
            <mxPoint x="-120" y="160" as="targetPoint" />
          </mxGeometry>
        </mxCell>
        <mxCell id="ixZ_gmdfhWqnxYuAUtQI-72" style="edgeStyle=none;rounded=0;orthogonalLoop=1;jettySize=auto;html=1;entryX=-0.088;entryY=0.847;entryDx=0;entryDy=0;entryPerimeter=0;" edge="1" parent="1" source="ixZ_gmdfhWqnxYuAUtQI-6" target="ixZ_gmdfhWqnxYuAUtQI-46">
          <mxGeometry relative="1" as="geometry" />
        </mxCell>
        <mxCell id="ixZ_gmdfhWqnxYuAUtQI-73" style="edgeStyle=none;rounded=0;orthogonalLoop=1;jettySize=auto;html=1;entryX=0.5;entryY=1;entryDx=0;entryDy=0;" edge="1" parent="1" source="ixZ_gmdfhWqnxYuAUtQI-6" target="ixZ_gmdfhWqnxYuAUtQI-48">
          <mxGeometry relative="1" as="geometry" />
        </mxCell>
        <mxCell id="ixZ_gmdfhWqnxYuAUtQI-6" value="Preparación y Despacho" style="ellipse;whiteSpace=wrap;html=1;aspect=fixed;fillColor=#d5e8d4;strokeColor=#82b366;" vertex="1" parent="1">
          <mxGeometry x="380" y="350" width="110" height="110" as="geometry" />
        </mxCell>
        <mxCell id="ixZ_gmdfhWqnxYuAUtQI-10" style="edgeStyle=orthogonalEdgeStyle;rounded=0;orthogonalLoop=1;jettySize=auto;html=1;" edge="1" parent="1" source="ixZ_gmdfhWqnxYuAUtQI-7">
          <mxGeometry relative="1" as="geometry">
            <mxPoint x="380" y="135" as="targetPoint" />
          </mxGeometry>
        </mxCell>
        <mxCell id="ixZ_gmdfhWqnxYuAUtQI-59" style="edgeStyle=none;rounded=0;orthogonalLoop=1;jettySize=auto;html=1;entryX=1.062;entryY=0.559;entryDx=0;entryDy=0;entryPerimeter=0;" edge="1" parent="1" source="ixZ_gmdfhWqnxYuAUtQI-7" target="ixZ_gmdfhWqnxYuAUtQI-43">
          <mxGeometry relative="1" as="geometry">
            <mxPoint x="80" as="targetPoint" />
          </mxGeometry>
        </mxCell>
        <mxCell id="ixZ_gmdfhWqnxYuAUtQI-67" style="edgeStyle=none;rounded=0;orthogonalLoop=1;jettySize=auto;html=1;" edge="1" parent="1" source="ixZ_gmdfhWqnxYuAUtQI-7">
          <mxGeometry relative="1" as="geometry">
            <mxPoint x="250" as="targetPoint" />
          </mxGeometry>
        </mxCell>
        <mxCell id="ixZ_gmdfhWqnxYuAUtQI-7" value="Recepción del pedido y verificación de existencias" style="ellipse;whiteSpace=wrap;html=1;aspect=fixed;fillColor=#d5e8d4;strokeColor=#82b366;" vertex="1" parent="1">
          <mxGeometry x="120" y="80" width="110" height="110" as="geometry" />
        </mxCell>
        <mxCell id="ixZ_gmdfhWqnxYuAUtQI-17" style="edgeStyle=none;rounded=0;orthogonalLoop=1;jettySize=auto;html=1;" edge="1" parent="1" source="ixZ_gmdfhWqnxYuAUtQI-9" target="ixZ_gmdfhWqnxYuAUtQI-6">
          <mxGeometry relative="1" as="geometry">
            <Array as="points">
              <mxPoint x="435" y="320" />
            </Array>
          </mxGeometry>
        </mxCell>
        <mxCell id="ixZ_gmdfhWqnxYuAUtQI-68" style="edgeStyle=none;rounded=0;orthogonalLoop=1;jettySize=auto;html=1;entryX=1;entryY=0.75;entryDx=0;entryDy=0;" edge="1" parent="1" source="ixZ_gmdfhWqnxYuAUtQI-9" target="ixZ_gmdfhWqnxYuAUtQI-45">
          <mxGeometry relative="1" as="geometry">
            <mxPoint x="480" y="50" as="targetPoint" />
          </mxGeometry>
        </mxCell>
        <mxCell id="ixZ_gmdfhWqnxYuAUtQI-9" value="Otorgamiento y Control de Crédito" style="ellipse;whiteSpace=wrap;html=1;aspect=fixed;fillColor=#d5e8d4;strokeColor=#82b366;" vertex="1" parent="1">
          <mxGeometry x="380" y="80" width="110" height="110" as="geometry" />
        </mxCell>
        <mxCell id="ixZ_gmdfhWqnxYuAUtQI-11" value="Nota de Pedido" style="text;html=1;align=center;verticalAlign=middle;resizable=0;points=[];autosize=1;strokeColor=none;" vertex="1" parent="1">
          <mxGeometry x="250" y="110" width="100" height="20" as="geometry" />
        </mxCell>
        <mxCell id="ixZ_gmdfhWqnxYuAUtQI-18" value="Solicitud de Crédito&lt;br&gt;aprobada" style="text;html=1;align=center;verticalAlign=middle;resizable=0;points=[];autosize=1;strokeColor=none;" vertex="1" parent="1">
          <mxGeometry x="450" y="250" width="120" height="30" as="geometry" />
        </mxCell>
        <mxCell id="ixZ_gmdfhWqnxYuAUtQI-20" value="Remito" style="text;html=1;align=center;verticalAlign=middle;resizable=0;points=[];autosize=1;strokeColor=none;" vertex="1" parent="1">
          <mxGeometry x="280" y="420" width="50" height="20" as="geometry" />
        </mxCell>
        <mxCell id="ixZ_gmdfhWqnxYuAUtQI-24" style="edgeStyle=none;rounded=0;orthogonalLoop=1;jettySize=auto;html=1;" edge="1" parent="1">
          <mxGeometry relative="1" as="geometry">
            <mxPoint x="445" y="190" as="sourcePoint" />
            <mxPoint x="445" y="350" as="targetPoint" />
            <Array as="points">
              <mxPoint x="445" y="320" />
            </Array>
          </mxGeometry>
        </mxCell>
        <mxCell id="ixZ_gmdfhWqnxYuAUtQI-25" value="Nota de&lt;br&gt;Pedido" style="text;html=1;align=center;verticalAlign=middle;resizable=0;points=[];autosize=1;strokeColor=none;" vertex="1" parent="1">
          <mxGeometry x="370" y="250" width="60" height="30" as="geometry" />
        </mxCell>
        <mxCell id="ixZ_gmdfhWqnxYuAUtQI-27" value="Nota de&lt;br&gt;Pedido" style="text;html=1;align=center;verticalAlign=middle;resizable=0;points=[];autosize=1;strokeColor=none;" vertex="1" parent="1">
          <mxGeometry x="270" y="370" width="60" height="30" as="geometry" />
        </mxCell>
        <mxCell id="ixZ_gmdfhWqnxYuAUtQI-30" style="edgeStyle=none;rounded=0;orthogonalLoop=1;jettySize=auto;html=1;entryX=0;entryY=0.5;entryDx=0;entryDy=0;" edge="1" parent="1" source="ixZ_gmdfhWqnxYuAUtQI-28" target="ixZ_gmdfhWqnxYuAUtQI-7">
          <mxGeometry relative="1" as="geometry" />
        </mxCell>
        <mxCell id="ixZ_gmdfhWqnxYuAUtQI-39" style="edgeStyle=none;rounded=0;orthogonalLoop=1;jettySize=auto;html=1;entryX=0;entryY=0;entryDx=0;entryDy=0;" edge="1" parent="1" source="ixZ_gmdfhWqnxYuAUtQI-28" target="ixZ_gmdfhWqnxYuAUtQI-6">
          <mxGeometry relative="1" as="geometry" />
        </mxCell>
        <mxCell id="ixZ_gmdfhWqnxYuAUtQI-28" value="&lt;font style=&quot;font-size: 17px&quot;&gt;Cliente&lt;/font&gt;" style="rounded=0;whiteSpace=wrap;html=1;" vertex="1" parent="1">
          <mxGeometry x="-190" y="112.5" width="110" height="45" as="geometry" />
        </mxCell>
        <mxCell id="ixZ_gmdfhWqnxYuAUtQI-31" value="Solicitud" style="text;html=1;align=center;verticalAlign=middle;resizable=0;points=[];autosize=1;strokeColor=none;" vertex="1" parent="1">
          <mxGeometry x="-20" y="110" width="60" height="20" as="geometry" />
        </mxCell>
        <mxCell id="ixZ_gmdfhWqnxYuAUtQI-33" value="Factura" style="text;html=1;align=center;verticalAlign=middle;resizable=0;points=[];autosize=1;strokeColor=none;" vertex="1" parent="1">
          <mxGeometry x="-90" y="280" width="60" height="20" as="geometry" />
        </mxCell>
        <mxCell id="ixZ_gmdfhWqnxYuAUtQI-37" style="edgeStyle=none;rounded=0;orthogonalLoop=1;jettySize=auto;html=1;entryX=1;entryY=0.5;entryDx=0;entryDy=0;" edge="1" parent="1">
          <mxGeometry relative="1" as="geometry">
            <mxPoint x="380.00000000000296" y="415.0000000000001" as="sourcePoint" />
            <mxPoint x="149.99999999999977" y="415.0000000000001" as="targetPoint" />
          </mxGeometry>
        </mxCell>
        <mxCell id="ixZ_gmdfhWqnxYuAUtQI-38" value="Remito&lt;br&gt;Conformado" style="text;html=1;align=center;verticalAlign=middle;resizable=0;points=[];autosize=1;strokeColor=none;" vertex="1" parent="1">
          <mxGeometry x="100" y="210" width="80" height="30" as="geometry" />
        </mxCell>
        <mxCell id="ixZ_gmdfhWqnxYuAUtQI-41" value="Mercaderías&lt;br&gt;y Remito" style="text;html=1;align=center;verticalAlign=middle;resizable=0;points=[];autosize=1;strokeColor=none;" vertex="1" parent="1">
          <mxGeometry x="70" y="280" width="80" height="30" as="geometry" />
        </mxCell>
        <mxCell id="ixZ_gmdfhWqnxYuAUtQI-42" value="Nota de Pedido&lt;br&gt;Valorizada" style="text;html=1;align=center;verticalAlign=middle;resizable=0;points=[];autosize=1;strokeColor=none;" vertex="1" parent="1">
          <mxGeometry x="220" y="270" width="100" height="30" as="geometry" />
        </mxCell>
        <mxCell id="ixZ_gmdfhWqnxYuAUtQI-43" value="" style="shape=partialRectangle;whiteSpace=wrap;html=1;bottom=1;right=1;left=1;top=0;fillColor=none;routingCenterX=-0.5;rotation=90;" vertex="1" parent="1">
          <mxGeometry x="70" y="-72.5" width="30" height="105" as="geometry" />
        </mxCell>
        <mxCell id="ixZ_gmdfhWqnxYuAUtQI-44" value="" style="shape=partialRectangle;whiteSpace=wrap;html=1;bottom=1;right=1;left=1;top=0;fillColor=none;routingCenterX=-0.5;rotation=90;" vertex="1" parent="1">
          <mxGeometry x="260" y="-72.5" width="30" height="105" as="geometry" />
        </mxCell>
        <mxCell id="ixZ_gmdfhWqnxYuAUtQI-69" style="edgeStyle=none;rounded=0;orthogonalLoop=1;jettySize=auto;html=1;" edge="1" parent="1" source="ixZ_gmdfhWqnxYuAUtQI-45" target="ixZ_gmdfhWqnxYuAUtQI-9">
          <mxGeometry relative="1" as="geometry" />
        </mxCell>
        <mxCell id="ixZ_gmdfhWqnxYuAUtQI-45" value="" style="shape=partialRectangle;whiteSpace=wrap;html=1;bottom=1;right=1;left=1;top=0;fillColor=none;routingCenterX=-0.5;rotation=90;" vertex="1" parent="1">
          <mxGeometry x="515" y="-25" width="30" height="105" as="geometry" />
        </mxCell>
        <mxCell id="ixZ_gmdfhWqnxYuAUtQI-46" value="" style="shape=partialRectangle;whiteSpace=wrap;html=1;bottom=1;right=1;left=1;top=0;fillColor=none;routingCenterX=-0.5;rotation=90;" vertex="1" parent="1">
          <mxGeometry x="470" y="510" width="30" height="105" as="geometry" />
        </mxCell>
        <mxCell id="ixZ_gmdfhWqnxYuAUtQI-74" style="edgeStyle=none;rounded=0;orthogonalLoop=1;jettySize=auto;html=1;entryX=1;entryY=0.636;entryDx=0;entryDy=0;entryPerimeter=0;" edge="1" parent="1" source="ixZ_gmdfhWqnxYuAUtQI-48" target="ixZ_gmdfhWqnxYuAUtQI-6">
          <mxGeometry relative="1" as="geometry" />
        </mxCell>
        <mxCell id="ixZ_gmdfhWqnxYuAUtQI-48" value="" style="shape=partialRectangle;whiteSpace=wrap;html=1;bottom=1;right=1;left=1;top=0;fillColor=none;routingCenterX=-0.5;rotation=90;" vertex="1" parent="1">
          <mxGeometry x="595" y="440" width="30" height="105" as="geometry" />
        </mxCell>
        <mxCell id="ixZ_gmdfhWqnxYuAUtQI-49" value="Stock" style="text;html=1;align=center;verticalAlign=middle;resizable=0;points=[];autosize=1;strokeColor=none;" vertex="1" parent="1">
          <mxGeometry x="60" y="-30" width="50" height="20" as="geometry" />
        </mxCell>
        <mxCell id="ixZ_gmdfhWqnxYuAUtQI-50" value="&lt;font style=&quot;font-size: 12px&quot;&gt;Nota de Pedido&lt;/font&gt;" style="text;html=1;align=center;verticalAlign=middle;resizable=0;points=[];autosize=1;strokeColor=none;" vertex="1" parent="1">
          <mxGeometry x="230" y="-30" width="100" height="20" as="geometry" />
        </mxCell>
        <mxCell id="ixZ_gmdfhWqnxYuAUtQI-51" value="Cuenta Corriente" style="text;html=1;align=center;verticalAlign=middle;resizable=0;points=[];autosize=1;strokeColor=none;" vertex="1" parent="1">
          <mxGeometry x="475" y="17.5" width="110" height="20" as="geometry" />
        </mxCell>
        <mxCell id="ixZ_gmdfhWqnxYuAUtQI-52" value="Remitos" style="text;html=1;align=center;verticalAlign=middle;resizable=0;points=[];autosize=1;strokeColor=none;" vertex="1" parent="1">
          <mxGeometry x="455" y="552.5" width="60" height="20" as="geometry" />
        </mxCell>
        <mxCell id="ixZ_gmdfhWqnxYuAUtQI-53" value="" style="shape=partialRectangle;whiteSpace=wrap;html=1;bottom=1;right=1;left=1;top=0;fillColor=none;routingCenterX=-0.5;rotation=90;" vertex="1" parent="1">
          <mxGeometry x="80" y="490" width="30" height="105" as="geometry" />
        </mxCell>
        <mxCell id="ixZ_gmdfhWqnxYuAUtQI-56" value="Stock" style="text;html=1;align=center;verticalAlign=middle;resizable=0;points=[];autosize=1;strokeColor=none;" vertex="1" parent="1">
          <mxGeometry x="580" y="482.5" width="50" height="20" as="geometry" />
        </mxCell>
        <mxCell id="ixZ_gmdfhWqnxYuAUtQI-57" value="Facturas y Remitos" style="text;html=1;align=center;verticalAlign=middle;resizable=0;points=[];autosize=1;strokeColor=none;" vertex="1" parent="1">
          <mxGeometry x="35" y="532.5" width="120" height="20" as="geometry" />
        </mxCell>
        <mxCell id="ixZ_gmdfhWqnxYuAUtQI-61" style="edgeStyle=none;rounded=0;orthogonalLoop=1;jettySize=auto;html=1;" edge="1" parent="1">
          <mxGeometry relative="1" as="geometry">
            <mxPoint x="160" y="80" as="targetPoint" />
            <mxPoint x="100.005" as="sourcePoint" />
          </mxGeometry>
        </mxCell>
        <mxCell id="ixZ_gmdfhWqnxYuAUtQI-63" style="edgeStyle=none;rounded=0;orthogonalLoop=1;jettySize=auto;html=1;" edge="1" parent="1" source="ixZ_gmdfhWqnxYuAUtQI-43">
          <mxGeometry relative="1" as="geometry">
            <mxPoint x="160" y="80" as="targetPoint" />
            <mxPoint x="100.005" as="sourcePoint" />
          </mxGeometry>
        </mxCell>
        <mxCell id="ixZ_gmdfhWqnxYuAUtQI-65" value="Consulta" style="text;html=1;align=center;verticalAlign=middle;resizable=0;points=[];autosize=1;strokeColor=none;" vertex="1" parent="1">
          <mxGeometry x="130" y="20" width="60" height="20" as="geometry" />
        </mxCell>
        <mxCell id="ixZ_gmdfhWqnxYuAUtQI-70" value="Consulta" style="text;html=1;align=center;verticalAlign=middle;resizable=0;points=[];autosize=1;strokeColor=none;" vertex="1" parent="1">
          <mxGeometry x="490" y="60" width="60" height="20" as="geometry" />
        </mxCell>
        <mxCell id="ixZ_gmdfhWqnxYuAUtQI-71" value="Registro" style="text;html=1;align=center;verticalAlign=middle;resizable=0;points=[];autosize=1;strokeColor=none;" vertex="1" parent="1">
          <mxGeometry x="430" y="50" width="60" height="20" as="geometry" />
        </mxCell>
        <mxCell id="ixZ_gmdfhWqnxYuAUtQI-75" value="Actualización" style="text;html=1;align=center;verticalAlign=middle;resizable=0;points=[];autosize=1;strokeColor=none;" vertex="1" parent="1">
          <mxGeometry x="515" y="420" width="90" height="20" as="geometry" />
        </mxCell>
        <mxCell id="ixZ_gmdfhWqnxYuAUtQI-76" value="Consulta" style="text;html=1;align=center;verticalAlign=middle;resizable=0;points=[];autosize=1;strokeColor=none;" vertex="1" parent="1">
          <mxGeometry x="475" y="470" width="60" height="20" as="geometry" />
        </mxCell>
      </root>
    </mxGraphModel>
  </diagram>
</mxfile>
